<?xml version="1.0" encoding="UTF-8"?> <svg xmlns="http://www.w3.org/2000/svg" width="100" height="67" viewBox="0 0 100 67" fill="none"> <path d="M0 38.5385C0 32.1659 5.16595 27 11.5385 27H26.4615C32.8341 27 38 32.1659 38 38.5385V50H0V38.5385Z" fill="#787F8D"></path> <circle cx="19" cy="12" r="12" fill="#EBC649"></circle> <path d="M62 55.6497C62 49.2157 67.2157 44 73.6497 44H88.3503C94.7843 44 100 49.2157 100 55.6497V67H62V55.6497Z" fill="#EBC649"></path> <circle cx="81" cy="29" r="12" fill="#787F8D"></circle> <path fill-rule="evenodd" clip-rule="evenodd" d="M100 0H51V7H93V12H100V7V0Z" fill="#787F8D"></path> <path fill-rule="evenodd" clip-rule="evenodd" d="M0 67H49V60H7V55H0V60V67Z" fill="#787F8D"></path> </svg> 